# xmcd
# 
# Track frame offsets:
#     150
#     10175
#     20780
#     33937
#     44677
#     54450
#     64262
#     74747
#     86295
#     100337
#     110740
#     123862
#     132002
#     143955
#     154582
#     166517
#     178107
#     190635
#     203842
#     222380
#     233655
#     248165
#     259300
#     270875
#     285385
#     296240
#     306960
#     318402
# 
# Disc length: 4412
# 
# Revision: 4
# Processed by: cddbd v1.5.2PL0 Copyright (c) Steve Scherf et al.
# Submitted via: fre:ac v1.0.17
# 
DISCID=99113a1c
DTITLE=Various Artist - The Chess Story Disc 7 1957 1959
DYEAR=1999
DGENRE=Blues
TTITLE0=Bo Diddley - Hey Bo Diddley
TTITLE1=Sonny Boy Williamson - Fattenin' Frogs For Snakes
TTITLE2=Lee Andrews and The Hearts - Long Lonely Nights
TTITLE3=Bo Diddley - Mona (I Need You Baby)
TTITLE4=Billy 'Curley' Barrix - Cool Off Baby
TTITLE5=T.V. Slim - Flat Foot Sam
TTITLE6=The Tuneweavers - Happy Happy Birthday Baby
TTITLE7=Chuck Berry - Rock And Roll Music
TTITLE8=Bo Diddley - Before You Accuse Me
TTITLE9=Al Kent - That's Why I Love You So
TTITLE10=Clifton Chenier - My Soul
TTITLE11=Billy Miranda - Go Ahead
TTITLE12=Sonny Boy Williamson - Ninety Nine
TTITLE13=The Monotones - Book Of Love
TTITLE14=G.L. Crockett - Look Out Mabel
TTITLE15=Howlin' Wolf - Sittin' On Top Of The World
TTITLE16=Jimmy McCracklin - The Walk
TTITLE17=Eddie Fontaine - Nothin' Shakin' (But The Leaves On The Trees)
TTITLE18=The Moonglows - Ten Commandments Of Love (Full Version)
TTITLE19=The Kendall Sisters - Yea Yea
TTITLE20=Chuck Berry - Sweet Little Sixteen
TTITLE21=Dale Hawkins - Tornado
TTITLE22=Stanley Mitchell and The Tornados - Four O'Clock In The Morning
TTITLE23=Bo Diddley - Say Man
TTITLE24=Jimmy McCracklin - Everybody Rock (New Orleans Beat)
TTITLE25=Lula Reed - Anything To Say You're Mine
TTITLE26=Sonny Boy Williamson - Your Funeral And My Trial
TTITLE27=Howlin' Wolf - Moanin' For My Baby
EXTD=YEAR: 1999 ID3G:   0
EXTT0=
EXTT1=
EXTT2=
EXTT3=
EXTT4=
EXTT5=
EXTT6=
EXTT7=
EXTT8=
EXTT9=
EXTT10=
EXTT11=
EXTT12=
EXTT13=
EXTT14=
EXTT15=
EXTT16=
EXTT17=
EXTT18=
EXTT19=
EXTT20=
EXTT21=
EXTT22=
EXTT23=
EXTT24=
EXTT25=
EXTT26=
EXTT27=
PLAYORDER=
